<svg xmlns="http://www.w3.org/2000/svg" xmlns:xlink="http://www.w3.org/1999/xlink" xml:space="preserve" version="1.1" style="shape-rendering:geometricPrecision;text-rendering:geometricPrecision;image-rendering:optimizeQuality;" viewBox="0 0 427 517.5" x="0px" y="0px" fill-rule="evenodd" clip-rule="evenodd"><defs><style type="text/css">
   
    .fil0 {fill:black;fill-rule:nonzero}
   
  </style></defs><g><path class="fil0" d="M213 59c10,-16 21,-29 33,-38 18,-14 40,-21 68,-21 31,0 59,12 79,32 21,19 34,47 34,77 0,51 -26,101 -66,152 -38,48 -88,97 -139,145l-9 8 -8 -8c-51,-48 -101,-97 -140,-145 -39,-51 -65,-101 -65,-152 0,-30 13,-58 33,-77 21,-20 49,-32 80,-32 28,0 49,7 67,21 13,9 23,22 33,38zm49 -18c-14,11 -26,27 -37,50l-12 21 -11 -21c-12,-23 -23,-39 -37,-50 -13,-10 -30,-16 -52,-16 -24,0 -46,10 -62,25 -16,15 -26,36 -26,59 0,45 24,90 60,136 35,44 81,89 128,134 47,-45 93,-90 128,-134 36,-46 60,-91 60,-136 0,-23 -9,-44 -25,-59 -16,-15 -38,-25 -62,-25 -22,0 -39,6 -52,16z"/></g><text x="0" y="429" fill="#000000" font-size="5px" font-weight="bold" font-family="'Helvetica Neue', Helvetica, Arial-Unicode, Arial, Sans-serif">Created by Bismillah</text><text x="0" y="434" fill="#000000" font-size="5px" font-weight="bold" font-family="'Helvetica Neue', Helvetica, Arial-Unicode, Arial, Sans-serif">from the Noun Project</text></svg>